<svg width="35" height="24" viewBox="0 0 35 24" fill="none" xmlns="http://www.w3.org/2000/svg">
<path d="M6.6622 23.5805C4.89958 23.1412 3.79012 21.2048 4.18919 19.2643C4.58825 17.3237 6.34708 16.1023 8.10971 16.5416C9.87233 16.981 10.9818 18.9173 10.5827 20.8579C10.1837 22.7984 8.42483 24.0198 6.6622 23.5805ZM7.91344 17.4961C6.62872 17.1758 5.34697 18.0659 5.05611 19.4803C4.76524 20.8947 5.57376 22.3059 6.85848 22.6261C8.14319 22.9463 9.42494 22.0562 9.71581 20.6418C10.0067 19.2274 9.19816 17.8163 7.91344 17.4961Z" fill="black"/>
<path d="M13.1109 12.684L9.34261 11.7447L7.85298 7.34043C7.15948 5.34411 5.55079 3.54272 3.75517 2.75099L3.2715 2.5376L1.76645 9.85632L1.57018 10.8107L0 18.4461L3.43147 19.3005L3.556 18.8734C3.60088 18.719 4.69844 15.1022 8.18432 15.9711L8.38751 16.0217C11.8734 16.8906 11.4489 20.6752 11.4292 20.8349L11.3724 21.2807L15.6046 22.3356L16.3802 18.5641C16.9543 15.7721 15.5794 13.2992 13.1109 12.684ZM3.90248 3.90104C5.26726 4.68018 6.4848 6.14181 7.02141 7.68603L8.30688 11.4865L2.63337 10.0724L3.90248 3.90104ZM14.9339 21.1651L12.3353 20.5174C12.3573 19.2903 12.0868 15.9404 8.58378 15.0673L8.3806 15.0166C4.87757 14.1435 3.32283 17.0384 2.86265 18.1563L1.06319 17.7078L2.4371 11.0268L9.71322 12.8404L12.9146 13.6384C14.9124 14.1363 15.9811 16.0731 15.5133 18.348L14.9339 21.1651Z" fill="black"/>
<path d="M28.2413 23.6345C26.4707 24.0331 24.7355 22.7714 24.3734 20.822C24.0114 18.8727 25.1574 16.9624 26.928 16.5638C28.6986 16.1652 30.4339 17.4269 30.7959 19.3762C31.158 21.3255 30.0119 23.2359 28.2413 23.6345ZM27.1061 17.5225C25.8156 17.813 24.9804 19.2052 25.2443 20.626C25.5082 22.0468 26.7727 22.9663 28.0632 22.6758C29.3538 22.3852 30.1889 20.9931 29.9251 19.5723C29.6612 18.1515 28.3966 17.232 27.1061 17.5225Z" fill="black"/>
<path d="M31.5445 2.87646C29.7338 3.6267 28.0914 5.39055 27.3586 7.37443L25.7869 11.7394L22.0016 12.5915C19.5221 13.1497 18.1002 15.5903 18.6211 18.3949L19.3248 22.1836L23.5742 21.226L23.5278 20.7804C23.5112 20.6193 23.1588 16.8257 26.6604 16.0375L26.8645 15.9915C30.3662 15.2032 31.3947 18.8446 31.4367 18.999L31.5515 19.4311L35 18.6548L33.5754 10.9849L33.3974 10.0261L32.0319 2.67432L31.5445 2.87646ZM33.9511 17.8921L32.1435 18.299C31.7049 17.1707 30.2051 14.2407 26.6865 15.0328L26.4824 15.0787C22.9637 15.8708 22.6291 19.2138 22.628 20.4411L20.0176 21.0288L19.492 18.1989C19.0676 15.9137 20.1726 14.0021 22.1796 13.5503L25.3955 12.8263L32.7046 11.1809L33.9511 17.8921ZM26.8273 11.5052L28.1834 7.73913C28.7506 6.20415 29.9958 4.7704 31.3751 4.02291L32.5265 10.2222L26.8273 11.5052Z" fill="black"/>
<path d="M17.2974 12.7215C17.2471 12.7215 17.1969 12.712 17.1488 12.6933L12.3935 10.8363C12.344 10.8169 12.298 10.788 12.2576 10.751L9.75816 8.45792C9.62708 8.33775 9.57001 8.14543 9.61146 7.96314C9.65313 7.78085 9.78572 7.64085 9.95281 7.60286L13.2081 6.86343L11.9176 3.39492C11.8462 3.20308 11.8924 2.98232 12.033 2.84423C12.1737 2.70662 12.3781 2.68106 12.5432 2.78092L15.6393 4.65852L16.8719 0.246317C16.9281 0.040137 17.1004 0 17.2961 0H17.2974C17.4927 0 17.6652 0.0382257 17.7221 0.243689L18.982 4.71335L22.11 2.80571C22.2749 2.70632 22.4793 2.71961 22.6195 2.8577C22.7597 2.99603 22.8057 3.21017 22.7341 3.40178L21.4403 6.86686L24.6876 7.60445C24.8551 7.64268 24.9879 7.78212 25.0292 7.96465C25.0704 8.14718 25.0127 8.33934 24.8812 8.45928L22.3665 10.7521C22.3261 10.7889 22.2801 10.8175 22.2306 10.8369L17.4452 12.6939C17.3975 12.7125 17.3473 12.7215 17.2974 12.7215ZM12.7657 9.94323L17.2979 11.7133L21.8604 9.94275L23.6017 8.35495L20.7359 7.70272C20.6061 7.6731 20.4955 7.5816 20.4334 7.45306C20.3713 7.32453 20.3644 7.17234 20.4147 7.0376L21.4355 4.30111L18.93 5.80864C18.8132 5.87936 18.6726 5.88796 18.5493 5.83253C18.4256 5.7771 18.331 5.66338 18.292 5.5229L17.3018 1.9691L16.3322 5.52027C16.2935 5.66171 16.1989 5.77639 16.0746 5.83229C15.9502 5.88844 15.8098 5.8796 15.6922 5.80792L13.2175 4.30709L14.2337 7.03807C14.2838 7.17258 14.2769 7.32501 14.2148 7.4533C14.1526 7.58184 14.0419 7.67334 13.9123 7.70272L11.0357 8.35615L12.7657 9.94323Z" fill="black"/>
</svg>
