<svg width="43" height="43" viewBox="0 0 43 43" fill="none" xmlns="http://www.w3.org/2000/svg">
    <rect width="42.9738" height="42.9738" rx="21.4869" transform="matrix(-1 0 0 1 42.9738 0)"
        fill="#0045C4" fill-opacity="0.05" />
    <path
        d="M22.9237 27.6753C22.5817 28.2611 21.9757 28.6113 21.3022 28.6113C20.6287 28.6113 20.0219 28.2611 19.6807 27.6753C19.5764 27.4961 19.6372 27.2666 19.8164 27.1623C19.9942 27.0581 20.2244 27.1188 20.3294 27.2973C20.5349 27.6506 20.8987 27.8613 21.3029 27.8613C21.7064 27.8613 22.0702 27.6506 22.2764 27.2973C22.3807 27.1188 22.6117 27.0588 22.7894 27.1623C22.9679 27.2666 23.0279 27.4968 22.9237 27.6753ZM27.5917 25.7523C27.5774 25.7351 26.1734 23.9553 26.1734 21.8613V19.9863C26.1734 19.7793 26.0054 19.6113 25.7984 19.6113C25.5914 19.6113 25.4234 19.7793 25.4234 19.9863V21.8613C25.4234 23.4543 26.1179 24.8501 26.5874 25.6113H16.0094C16.4789 24.8501 17.1734 23.4543 17.1734 21.8613V19.2363C17.1734 16.9616 19.0237 15.1113 21.2984 15.1113C21.5054 15.1113 21.6734 14.9433 21.6734 14.7363C21.6734 14.5293 21.5054 14.3613 21.2984 14.3613C18.6104 14.3613 16.4234 16.5483 16.4234 19.2363V21.8613C16.4234 23.9471 15.0194 25.7343 15.0052 25.7523C14.9152 25.8648 14.8979 26.0193 14.9602 26.1491C15.0224 26.2788 15.1537 26.3613 15.2977 26.3613H27.2977C27.4417 26.3613 27.5729 26.2788 27.6359 26.1491C27.6989 26.0186 27.6817 25.8648 27.5917 25.7523ZM23.1734 16.2363C23.1734 15.2028 24.0149 14.3613 25.0484 14.3613C26.0819 14.3613 26.9234 15.2028 26.9234 16.2363C26.9234 17.2698 26.0819 18.1113 25.0484 18.1113C24.0149 18.1113 23.1734 17.2698 23.1734 16.2363ZM23.9234 16.2363C23.9234 16.8566 24.4282 17.3613 25.0484 17.3613C25.6687 17.3613 26.1734 16.8566 26.1734 16.2363C26.1734 15.6161 25.6687 15.1113 25.0484 15.1113C24.4282 15.1113 23.9234 15.6161 23.9234 16.2363Z"
        fill="#F5747A" />
</svg>
