<svg width="13" height="13" viewBox="0 0 13 13" fill="none" xmlns="http://www.w3.org/2000/svg">
<path d="M12.0166 8.54533L10.2545 7.49465C9.47651 7.03065 8.47318 7.25733 7.96985 8.00867L7.38196 8.88666C5.80462 8.15532 4.51189 6.85998 3.78056 5.27598L4.65523 4.69466C5.40856 4.19399 5.63788 3.19132 5.17655 2.41266L4.13391 0.652647C3.84591 0.165313 3.28119 -0.0860167 2.71252 0.0266499C1.79586 0.209983 0.988523 0.772647 0.49719 1.56931C0.00919 2.36131 -0.125406 3.28799 0.11926 4.17733C1.23259 8.22799 4.44192 11.4353 8.49459 12.548C8.78458 12.6273 9.07728 12.6667 9.36861 12.6667C9.97194 12.6667 10.5665 12.498 11.1005 12.1687C11.8965 11.6773 12.4585 10.87 12.6419 9.95333C12.7526 9.40066 12.5019 8.83466 12.0166 8.54533ZM11.9879 9.82198C11.8406 10.558 11.3899 11.2066 10.7506 11.6013C10.1166 11.992 9.37666 12.0986 8.67199 11.9053C4.84466 10.8546 1.81332 7.82598 0.762652 4.00065C0.567319 3.29198 0.674557 2.55266 1.06522 1.91933C1.45989 1.28 2.10791 0.827981 2.85591 0.678648C2.89925 0.669981 2.94328 0.665322 2.98661 0.665322C3.21928 0.665322 3.44 0.78732 3.56067 0.992653L4.60266 2.75199C4.88333 3.22533 4.74394 3.83465 4.28528 4.13932L3.17785 4.87599C3.04519 4.96466 2.99398 5.13465 3.05464 5.28198C3.86531 7.22465 5.43931 8.80266 7.37398 9.612C7.52265 9.674 7.69192 9.62265 7.77925 9.48999L8.52258 8.37998C8.82925 7.92265 9.43789 7.78465 9.91255 8.06732L11.6746 9.11798C11.9179 9.26265 12.0432 9.54531 11.9879 9.82198Z" fill="#0B223D"/>
</svg>
