<svg width="13" height="13" viewBox="0 0 13 13" fill="none" xmlns="http://www.w3.org/2000/svg">
<path fill-rule="evenodd" clip-rule="evenodd" d="M6.48665 0C2.99332 0 0.15332 2.84 0.15332 6.33333C0.15332 7.42 0.433301 8.48667 0.966634 9.44L0 12.82L3.38 11.8533C4.32667 12.3867 5.39999 12.6667 6.48665 12.6667C9.97999 12.6667 12.82 9.82667 12.82 6.33333C12.82 2.84 9.97999 0 6.48665 0ZM6.48665 12C5.47332 12 4.47331 11.7267 3.59998 11.2067L3.47331 11.1333L0.973307 11.8467L1.68665 9.34667L1.61332 9.22C1.09332 8.34667 0.819987 7.34667 0.819987 6.33333C0.819987 3.20667 3.35999 0.666667 6.48665 0.666667C9.61332 0.666667 12.1533 3.20667 12.1533 6.33333C12.1533 9.46 9.61332 12 6.48665 12ZM9.79997 7.84C9.83997 7.90666 9.84 8.24 9.70667 8.62667C9.56667 9.02 8.89998 9.38 8.59998 9.41333C8.29998 9.44666 8.01997 9.55333 6.6333 9.00666C4.96663 8.34 3.90666 6.62 3.82666 6.51334C3.74666 6.40667 3.15999 5.62 3.15999 4.80667C3.15999 3.99334 3.57998 3.6 3.73332 3.42667C3.88665 3.26 4.06667 3.22 4.17334 3.22C4.28667 3.22 4.39333 3.22 4.49333 3.22666C4.60666 3.22666 4.73999 3.22666 4.85999 3.50666C5.00665 3.83333 5.31999 4.64667 5.35999 4.72C5.39999 4.8 5.42667 4.9 5.37333 5.00666C5.31333 5.11333 5.28666 5.18667 5.20667 5.28C5.12667 5.37333 5.03334 5.49334 4.96 5.56667C4.87333 5.64667 4.7933 5.73334 4.88664 5.9C4.98664 6.06 5.3133 6.60666 5.79997 7.04C6.42663 7.60666 6.95333 7.77999 7.12 7.85999C7.28 7.93999 7.37997 7.92666 7.47331 7.82C7.57331 7.71333 7.88666 7.34 7.99333 7.17333C8.09999 7.01333 8.20665 7.04 8.35999 7.09333C8.51332 7.14667 9.31331 7.55333 9.47998 7.63333C9.63998 7.72 9.75333 7.76 9.79333 7.82667L9.79997 7.84Z" fill="#0B223D"/>
</svg>
